<?xml version="1.0" encoding="UTF-8" standalone="no"?>
<!DOCTYPE svg PUBLIC "-//W3C//DTD SVG 1.1//EN" "http://www.w3.org/Graphics/SVG/1.1/DTD/svg11.dtd">
<svg xmlns="http://www.w3.org/2000/svg" version="1.1" viewBox="0.00 0.00 450.00 450.00">
<path stroke="#808080" stroke-width="2.00" fill="none" stroke-linecap="butt" vector-effect="non-scaling-stroke" d="
  M 139.52 179.79
  L 137.03 159.75
  Q 136.95 159.07 136.26 159.09
  L 88.11 160.52
  Q 87.50 160.53 87.50 161.14
  L 87.50 176.34
  Q 87.50 176.95 88.09 177.09
  L 112.28 182.79
  Q 112.88 182.93 112.88 183.54
  L 112.88 293.17
  Q 112.88 294.01 112.08 294.24
  L 88.03 301.27
  Q 87.50 301.42 87.50 301.98
  L 87.50 317.50
  Q 87.50 318.00 88.00 318.00
  L 161.88 318.00
  Q 162.50 318.00 162.50 317.38
  L 162.50 302.00
  Q 162.50 301.47 162.00 301.27
  L 143.49 294.19
  Q 143.00 294.00 143.00 293.48
  L 143.00 205.95
  A 1.81 1.79 64.5 0 1 143.39 204.83
  C 151.35 194.74 164.09 184.42 177.03 182.17
  C 186.22 180.58 198.57 181.13 204.59 188.73
  C 208.88 194.13 210.36 202.87 210.41 209.60
  Q 210.71 250.29 210.49 293.45
  Q 210.48 293.99 209.99 294.18
  L 191.53 301.18
  Q 190.88 301.43 190.88 302.14
  L 190.87 317.64
  A 0.36 0.36 0.0 0 0 191.23 318.00
  L 259.50 318.00
  A 0.50 0.50 0.0 0 0 260.00 317.50
  L 260.00 302.00
  Q 260.00 301.45 259.49 301.25
  L 240.80 294.13
  Q 240.38 293.97 240.38 293.52
  L 240.38 205.88
  A 1.48 1.46 -26.6 0 1 240.69 204.98
  Q 250.37 192.76 263.57 185.87
  C 272.42 181.25 285.09 179.77 294.93 183.60
  C 306.70 188.19 307.93 202.82 307.91 213.51
  Q 307.83 253.19 307.89 293.07
  Q 307.89 293.98 307.03 294.31
  L 288.95 301.25
  Q 288.38 301.46 288.38 302.07
  L 288.36 317.43
  Q 288.36 318.00 288.93 318.00
  L 360.00 318.00
  Q 360.50 318.00 360.50 317.50
  L 360.50 301.99
  Q 360.50 301.45 359.98 301.28
  L 338.41 294.10
  Q 337.92 293.93 337.91 293.41
  Q 337.83 252.41 337.94 212.20
  C 338.00 194.59 334.87 174.22 319.54 163.47
  Q 311.79 158.04 300.95 156.62
  Q 278.51 153.69 259.71 164.47
  Q 245.71 172.50 236.17 181.20
  Q 235.57 181.75 235.26 181.00
  C 224.18 154.71 192.63 150.92 169.50 161.07
  C 159.11 165.62 148.64 172.28 139.91 179.93
  A 0.24 0.23 -24.8 0 1 139.52 179.79"
/>
<path fill="#000000" d="
  M 218.55 0.00
  L 233.27 0.00
  Q 294.41 2.69 343.87 33.87
  Q 388.18 61.80 415.44 105.05
  Q 447.28 155.56 450.00 216.64
  L 450.00 233.33
  Q 449.13 245.56 448.69 249.50
  C 442.01 309.78 411.31 365.00 364.01 401.98
  Q 306.92 446.61 233.17 450.00
  L 216.64 450.00
  Q 211.33 449.51 206.01 449.07
  Q 152.73 444.59 107.34 416.65
  Q 67.10 391.88 40.75 354.25
  Q 2.98 300.30 0.00 233.16
  L 0.00 216.52
  Q 3.58 141.67 49.42 84.21
  Q 71.70 56.27 103.08 35.83
  Q 154.65 2.22 218.55 0.00
  Z
  M 139.52 179.79
  L 137.03 159.75
  Q 136.95 159.07 136.26 159.09
  L 88.11 160.52
  Q 87.50 160.53 87.50 161.14
  L 87.50 176.34
  Q 87.50 176.95 88.09 177.09
  L 112.28 182.79
  Q 112.88 182.93 112.88 183.54
  L 112.88 293.17
  Q 112.88 294.01 112.08 294.24
  L 88.03 301.27
  Q 87.50 301.42 87.50 301.98
  L 87.50 317.50
  Q 87.50 318.00 88.00 318.00
  L 161.88 318.00
  Q 162.50 318.00 162.50 317.38
  L 162.50 302.00
  Q 162.50 301.47 162.00 301.27
  L 143.49 294.19
  Q 143.00 294.00 143.00 293.48
  L 143.00 205.95
  A 1.81 1.79 64.5 0 1 143.39 204.83
  C 151.35 194.74 164.09 184.42 177.03 182.17
  C 186.22 180.58 198.57 181.13 204.59 188.73
  C 208.88 194.13 210.36 202.87 210.41 209.60
  Q 210.71 250.29 210.49 293.45
  Q 210.48 293.99 209.99 294.18
  L 191.53 301.18
  Q 190.88 301.43 190.88 302.14
  L 190.87 317.64
  A 0.36 0.36 0.0 0 0 191.23 318.00
  L 259.50 318.00
  A 0.50 0.50 0.0 0 0 260.00 317.50
  L 260.00 302.00
  Q 260.00 301.45 259.49 301.25
  L 240.80 294.13
  Q 240.38 293.97 240.38 293.52
  L 240.38 205.88
  A 1.48 1.46 -26.6 0 1 240.69 204.98
  Q 250.37 192.76 263.57 185.87
  C 272.42 181.25 285.09 179.77 294.93 183.60
  C 306.70 188.19 307.93 202.82 307.91 213.51
  Q 307.83 253.19 307.89 293.07
  Q 307.89 293.98 307.03 294.31
  L 288.95 301.25
  Q 288.38 301.46 288.38 302.07
  L 288.36 317.43
  Q 288.36 318.00 288.93 318.00
  L 360.00 318.00
  Q 360.50 318.00 360.50 317.50
  L 360.50 301.99
  Q 360.50 301.45 359.98 301.28
  L 338.41 294.10
  Q 337.92 293.93 337.91 293.41
  Q 337.83 252.41 337.94 212.20
  C 338.00 194.59 334.87 174.22 319.54 163.47
  Q 311.79 158.04 300.95 156.62
  Q 278.51 153.69 259.71 164.47
  Q 245.71 172.50 236.17 181.20
  Q 235.57 181.75 235.26 181.00
  C 224.18 154.71 192.63 150.92 169.50 161.07
  C 159.11 165.62 148.64 172.28 139.91 179.93
  A 0.24 0.23 -24.8 0 1 139.52 179.79
  Z"
/>
<path fill="#ffffff" d="
  M 139.52 179.79
  A 0.24 0.23 -24.8 0 0 139.91 179.93
  C 148.64 172.28 159.11 165.62 169.50 161.07
  C 192.63 150.92 224.18 154.71 235.26 181.00
  Q 235.57 181.75 236.17 181.20
  Q 245.71 172.50 259.71 164.47
  Q 278.51 153.69 300.95 156.62
  Q 311.79 158.04 319.54 163.47
  C 334.87 174.22 338.00 194.59 337.94 212.20
  Q 337.83 252.41 337.91 293.41
  Q 337.92 293.93 338.41 294.10
  L 359.98 301.28
  Q 360.50 301.45 360.50 301.99
  L 360.50 317.50
  Q 360.50 318.00 360.00 318.00
  L 288.93 318.00
  Q 288.36 318.00 288.36 317.43
  L 288.38 302.07
  Q 288.38 301.46 288.95 301.25
  L 307.03 294.31
  Q 307.89 293.98 307.89 293.07
  Q 307.83 253.19 307.91 213.51
  C 307.93 202.82 306.70 188.19 294.93 183.60
  C 285.09 179.77 272.42 181.25 263.57 185.87
  Q 250.37 192.76 240.69 204.98
  A 1.48 1.46 -26.6 0 0 240.38 205.88
  L 240.38 293.52
  Q 240.38 293.97 240.80 294.13
  L 259.49 301.25
  Q 260.00 301.45 260.00 302.00
  L 260.00 317.50
  A 0.50 0.50 0.0 0 1 259.50 318.00
  L 191.23 318.00
  A 0.36 0.36 0.0 0 1 190.87 317.64
  L 190.88 302.14
  Q 190.88 301.43 191.53 301.18
  L 209.99 294.18
  Q 210.48 293.99 210.49 293.45
  Q 210.71 250.29 210.41 209.60
  C 210.36 202.87 208.88 194.13 204.59 188.73
  C 198.57 181.13 186.22 180.58 177.03 182.17
  C 164.09 184.42 151.35 194.74 143.39 204.83
  A 1.81 1.79 64.5 0 0 143.00 205.95
  L 143.00 293.48
  Q 143.00 294.00 143.49 294.19
  L 162.00 301.27
  Q 162.50 301.47 162.50 302.00
  L 162.50 317.38
  Q 162.50 318.00 161.88 318.00
  L 88.00 318.00
  Q 87.50 318.00 87.50 317.50
  L 87.50 301.98
  Q 87.50 301.42 88.03 301.27
  L 112.08 294.24
  Q 112.88 294.01 112.88 293.17
  L 112.88 183.54
  Q 112.88 182.93 112.28 182.79
  L 88.09 177.09
  Q 87.50 176.95 87.50 176.34
  L 87.50 161.14
  Q 87.50 160.53 88.11 160.52
  L 136.26 159.09
  Q 136.95 159.07 137.03 159.75
  L 139.52 179.79
  Z"
/>
</svg>
